<mxfile host="app.diagrams.net" modified="2020-10-06T19:51:56.756Z" agent="5.0 (Windows NT 10.0; Win64; x64) AppleWebKit/537.36 (KHTML, like Gecko) Chrome/85.0.4183.121 Safari/537.36" etag="QyvMlTjeFGn7Al0w8tGR" version="13.7.7" type="github">
  <diagram id="6a731a19-8d31-9384-78a2-239565b7b9f0" name="Page-1">
    <mxGraphModel dx="1038" dy="580" grid="1" gridSize="10" guides="1" tooltips="1" connect="1" arrows="1" fold="1" page="1" pageScale="1" pageWidth="1169" pageHeight="827" background="#ffffff" math="0" shadow="0">
      <root>
        <mxCell id="0" />
        <mxCell id="1" parent="0" />
        <mxCell id="2" value="start" style="shape=mxgraph.flowchart.terminator;strokeWidth=2;gradientColor=none;gradientDirection=north;fontStyle=0;html=1;" parent="1" vertex="1">
          <mxGeometry x="260" y="40" width="120" height="30" as="geometry" />
        </mxCell>
        <mxCell id="6" value="arr [ i ] &amp;gt; arr [ j ]" style="shape=mxgraph.flowchart.decision;strokeWidth=2;gradientColor=none;gradientDirection=north;fontStyle=0;html=1;" parent="1" vertex="1">
          <mxGeometry x="239.5" y="290" width="160" height="90" as="geometry" />
        </mxCell>
        <mxCell id="7" style="fontStyle=1;strokeColor=#003366;strokeWidth=1;html=1;entryX=0.5;entryY=0;entryDx=0;entryDy=0;" parent="1" source="2" target="oVoYW1n43hck6RSmr_4g-55" edge="1">
          <mxGeometry relative="1" as="geometry">
            <mxPoint x="320" y="130" as="targetPoint" />
          </mxGeometry>
        </mxCell>
        <mxCell id="10" value="" style="edgeStyle=elbowEdgeStyle;elbow=horizontal;entryX=0.5;entryY=0;exitX=1;exitY=0.5;exitPerimeter=0;fontStyle=1;strokeColor=#003366;strokeWidth=1;html=1;entryDx=0;entryDy=0;" parent="1" source="6" target="oVoYW1n43hck6RSmr_4g-59" edge="1">
          <mxGeometry x="381" y="28.5" width="100" height="100" as="geometry">
            <mxPoint x="750" y="447" as="sourcePoint" />
            <mxPoint x="545" y="373.71000000000004" as="targetPoint" />
            <Array as="points">
              <mxPoint x="500" y="340" />
            </Array>
          </mxGeometry>
        </mxCell>
        <mxCell id="11" value="yes" style="text;fontStyle=0;html=1;strokeColor=none;gradientColor=none;fillColor=none;strokeWidth=2;" parent="1" vertex="1">
          <mxGeometry x="410" y="300" width="40" height="26" as="geometry" />
        </mxCell>
        <mxCell id="12" value="" style="edgeStyle=elbowEdgeStyle;elbow=horizontal;fontColor=#001933;fontStyle=1;strokeColor=#003366;strokeWidth=1;html=1;" parent="1" source="6" edge="1">
          <mxGeometry width="100" height="100" as="geometry">
            <mxPoint y="100" as="sourcePoint" />
            <mxPoint x="320" y="510" as="targetPoint" />
          </mxGeometry>
        </mxCell>
        <mxCell id="14" value="no" style="text;fontStyle=0;html=1;strokeColor=none;gradientColor=none;fillColor=none;strokeWidth=2;align=center;" parent="1" vertex="1">
          <mxGeometry x="281" y="410" width="40" height="26" as="geometry" />
        </mxCell>
        <mxCell id="40" value="end" style="shape=mxgraph.flowchart.terminator;strokeWidth=2;gradientColor=none;gradientDirection=north;fontStyle=0;html=1;" parent="1" vertex="1">
          <mxGeometry x="261" y="970" width="120" height="30" as="geometry" />
        </mxCell>
        <mxCell id="43" value="" style="edgeStyle=elbowEdgeStyle;elbow=vertical;exitX=0.5;exitY=1;exitPerimeter=0;entryX=0.5;entryY=0;entryPerimeter=0;fontStyle=1;strokeColor=#003366;strokeWidth=1;html=1;exitDx=0;exitDy=0;" parent="1" source="oVoYW1n43hck6RSmr_4g-77" target="40" edge="1">
          <mxGeometry width="100" height="100" as="geometry">
            <mxPoint x="320" y="1810" as="sourcePoint" />
            <mxPoint x="100" as="targetPoint" />
          </mxGeometry>
        </mxCell>
        <mxCell id="oVoYW1n43hck6RSmr_4g-55" value="i = 0" style="rounded=0;whiteSpace=wrap;html=1;strokeWidth=2;" vertex="1" parent="1">
          <mxGeometry x="259.5" y="110" width="120" height="40" as="geometry" />
        </mxCell>
        <mxCell id="oVoYW1n43hck6RSmr_4g-56" value="j = i + 1" style="rounded=0;whiteSpace=wrap;html=1;strokeWidth=2;" vertex="1" parent="1">
          <mxGeometry x="259.5" y="200" width="120" height="40" as="geometry" />
        </mxCell>
        <mxCell id="oVoYW1n43hck6RSmr_4g-59" value="temp = arr [ i ]&lt;br&gt;arr [ i ] =&amp;nbsp; arr [ j ]&lt;br&gt;arr [ j ] = temp" style="rounded=0;whiteSpace=wrap;html=1;strokeWidth=2;" vertex="1" parent="1">
          <mxGeometry x="440" y="370" width="120" height="80" as="geometry" />
        </mxCell>
        <mxCell id="oVoYW1n43hck6RSmr_4g-63" value="" style="endArrow=none;html=1;entryX=0.5;entryY=1;entryDx=0;entryDy=0;" edge="1" parent="1" target="oVoYW1n43hck6RSmr_4g-59">
          <mxGeometry width="50" height="50" relative="1" as="geometry">
            <mxPoint x="500" y="480" as="sourcePoint" />
            <mxPoint x="550" y="450" as="targetPoint" />
          </mxGeometry>
        </mxCell>
        <mxCell id="oVoYW1n43hck6RSmr_4g-64" value="" style="endArrow=none;html=1;" edge="1" parent="1">
          <mxGeometry width="50" height="50" relative="1" as="geometry">
            <mxPoint x="320" y="480" as="sourcePoint" />
            <mxPoint x="500" y="480" as="targetPoint" />
          </mxGeometry>
        </mxCell>
        <mxCell id="oVoYW1n43hck6RSmr_4g-65" value="j ++" style="rounded=0;whiteSpace=wrap;html=1;strokeWidth=2;" vertex="1" parent="1">
          <mxGeometry x="260" y="510" width="120" height="40" as="geometry" />
        </mxCell>
        <mxCell id="oVoYW1n43hck6RSmr_4g-67" value="" style="endArrow=classic;html=1;exitX=0.5;exitY=1;exitDx=0;exitDy=0;entryX=0.5;entryY=0;entryDx=0;entryDy=0;entryPerimeter=0;" edge="1" parent="1" source="oVoYW1n43hck6RSmr_4g-65">
          <mxGeometry width="50" height="50" relative="1" as="geometry">
            <mxPoint x="500" y="510" as="sourcePoint" />
            <mxPoint x="320.5" y="600" as="targetPoint" />
          </mxGeometry>
        </mxCell>
        <mxCell id="oVoYW1n43hck6RSmr_4g-71" style="edgeStyle=orthogonalEdgeStyle;rounded=0;orthogonalLoop=1;jettySize=auto;html=1;exitX=1;exitY=0.5;exitDx=0;exitDy=0;exitPerimeter=0;" edge="1" parent="1" source="oVoYW1n43hck6RSmr_4g-68">
          <mxGeometry relative="1" as="geometry">
            <mxPoint x="321" y="260" as="targetPoint" />
            <Array as="points">
              <mxPoint x="640" y="645" />
              <mxPoint x="640" y="260" />
            </Array>
          </mxGeometry>
        </mxCell>
        <mxCell id="oVoYW1n43hck6RSmr_4g-68" value="j &amp;lt; arr.length&amp;nbsp;" style="shape=mxgraph.flowchart.decision;strokeWidth=2;gradientColor=none;gradientDirection=north;fontStyle=0;html=1;" vertex="1" parent="1">
          <mxGeometry x="241" y="600" width="160" height="90" as="geometry" />
        </mxCell>
        <mxCell id="oVoYW1n43hck6RSmr_4g-73" value="yes" style="text;fontStyle=0;html=1;strokeColor=none;gradientColor=none;fillColor=none;strokeWidth=2;" vertex="1" parent="1">
          <mxGeometry x="450" y="610" width="40" height="26" as="geometry" />
        </mxCell>
        <mxCell id="oVoYW1n43hck6RSmr_4g-74" value="" style="endArrow=classic;html=1;exitX=0.5;exitY=1;exitDx=0;exitDy=0;exitPerimeter=0;" edge="1" parent="1" source="oVoYW1n43hck6RSmr_4g-68">
          <mxGeometry width="50" height="50" relative="1" as="geometry">
            <mxPoint x="500" y="650" as="sourcePoint" />
            <mxPoint x="321" y="740" as="targetPoint" />
          </mxGeometry>
        </mxCell>
        <mxCell id="oVoYW1n43hck6RSmr_4g-75" value="no" style="text;fontStyle=0;html=1;strokeColor=none;gradientColor=none;fillColor=none;strokeWidth=2;align=center;" vertex="1" parent="1">
          <mxGeometry x="280" y="700" width="40" height="26" as="geometry" />
        </mxCell>
        <mxCell id="oVoYW1n43hck6RSmr_4g-76" value="i ++" style="rounded=0;whiteSpace=wrap;html=1;strokeWidth=2;" vertex="1" parent="1">
          <mxGeometry x="259.5" y="740" width="120" height="40" as="geometry" />
        </mxCell>
        <mxCell id="oVoYW1n43hck6RSmr_4g-77" value="i &amp;lt; arr.length - 1" style="shape=mxgraph.flowchart.decision;strokeWidth=2;gradientColor=none;gradientDirection=north;fontStyle=0;html=1;" vertex="1" parent="1">
          <mxGeometry x="241" y="830" width="160" height="90" as="geometry" />
        </mxCell>
        <mxCell id="oVoYW1n43hck6RSmr_4g-78" style="edgeStyle=orthogonalEdgeStyle;rounded=0;orthogonalLoop=1;jettySize=auto;html=1;exitX=1;exitY=0.5;exitDx=0;exitDy=0;exitPerimeter=0;" edge="1" source="oVoYW1n43hck6RSmr_4g-77" parent="1">
          <mxGeometry relative="1" as="geometry">
            <mxPoint x="321" y="180" as="targetPoint" />
            <Array as="points">
              <mxPoint x="700" y="875" />
              <mxPoint x="700" y="180" />
            </Array>
          </mxGeometry>
        </mxCell>
        <mxCell id="oVoYW1n43hck6RSmr_4g-79" value="" style="endArrow=classic;html=1;exitX=0.5;exitY=1;exitDx=0;exitDy=0;entryX=0.5;entryY=0;entryDx=0;entryDy=0;" edge="1" parent="1" source="oVoYW1n43hck6RSmr_4g-55" target="oVoYW1n43hck6RSmr_4g-56">
          <mxGeometry width="50" height="50" relative="1" as="geometry">
            <mxPoint x="320" y="200" as="sourcePoint" />
            <mxPoint x="370" y="150" as="targetPoint" />
          </mxGeometry>
        </mxCell>
        <mxCell id="oVoYW1n43hck6RSmr_4g-80" value="" style="endArrow=classic;html=1;exitX=0.5;exitY=1;exitDx=0;exitDy=0;" edge="1" parent="1" source="oVoYW1n43hck6RSmr_4g-56" target="6">
          <mxGeometry width="50" height="50" relative="1" as="geometry">
            <mxPoint x="500" y="250" as="sourcePoint" />
            <mxPoint x="550" y="200" as="targetPoint" />
          </mxGeometry>
        </mxCell>
        <mxCell id="oVoYW1n43hck6RSmr_4g-81" value="" style="endArrow=classic;html=1;exitX=0.5;exitY=1;exitDx=0;exitDy=0;" edge="1" parent="1" source="oVoYW1n43hck6RSmr_4g-76" target="oVoYW1n43hck6RSmr_4g-77">
          <mxGeometry width="50" height="50" relative="1" as="geometry">
            <mxPoint x="320" y="790" as="sourcePoint" />
            <mxPoint x="550" y="770" as="targetPoint" />
          </mxGeometry>
        </mxCell>
        <mxCell id="oVoYW1n43hck6RSmr_4g-83" value="yes" style="text;fontStyle=0;html=1;strokeColor=none;gradientColor=none;fillColor=none;strokeWidth=2;" vertex="1" parent="1">
          <mxGeometry x="450" y="840" width="40" height="26" as="geometry" />
        </mxCell>
        <mxCell id="oVoYW1n43hck6RSmr_4g-84" value="no" style="text;fontStyle=0;html=1;strokeColor=none;gradientColor=none;fillColor=none;strokeWidth=2;align=center;" vertex="1" parent="1">
          <mxGeometry x="281" y="920" width="40" height="26" as="geometry" />
        </mxCell>
      </root>
    </mxGraphModel>
  </diagram>
</mxfile>
